<?xml version="1.0" standalone="no"?>
<!DOCTYPE svg PUBLIC "-//W3C//DTD SVG 20010904//EN"
 "http://www.w3.org/TR/2001/REC-SVG-20010904/DTD/svg10.dtd">
<svg version="1.0" xmlns="http://www.w3.org/2000/svg"
 width="500.000000pt" height="500.000000pt" viewBox="0 0 500.000000 500.000000"
 preserveAspectRatio="xMidYMid meet">

<g transform="translate(0.000000,500.000000) scale(0.100000,-0.100000)"
fill="#FeFeFe" stroke="none">
<path d="M930 3444 c-131 -25 -248 -91 -303 -171 -31 -45 -44 -101 -29 -129 5
-11 7 -47 4 -81 -4 -54 -7 -63 -23 -63 -12 0 -23 -11 -29 -26 -13 -34 -13 -33
13 -43 19 -8 22 -15 19 -49 -3 -26 -12 -48 -28 -63 -39 -37 -28 -73 25 -81 19
-2 27 -12 34 -38 10 -41 58 -95 107 -120 94 -47 324 -71 499 -51 133 16 199
40 245 91 35 39 43 57 49 115 2 23 11 34 35 44 34 16 40 35 18 60 -20 24 -30
111 -12 111 25 0 26 30 3 53 -20 20 -22 31 -20 117 2 85 0 99 -22 137 -69 117
-217 181 -440 188 -66 2 -131 1 -145 -1z m310 -30 c122 -27 206 -78 251 -150
26 -43 39 -97 28 -115 -7 -11 -9 -10 -9 4 0 9 -6 17 -14 17 -19 0 -32 -20 -14
-20 8 -1 7 -6 -5 -14 -18 -14 -18 -14 0 -18 10 -2 -36 -13 -102 -23 -163 -27
-568 -28 -659 -2 -60 17 -95 37 -65 37 12 0 12 2 -1 10 -20 13 -33 12 -24 -2
5 -7 3 -8 -6 -3 -8 5 -11 23 -8 55 6 61 47 114 128 168 64 43 201 85 208 64 6
-18 22 -14 22 5 0 14 11 15 98 10 53 -3 131 -14 172 -23z m320 -435 c0 -5 -7
-9 -15 -9 -15 0 -20 12 -9 23 8 8 24 -1 24 -14z m-939 -19 l24 -19 -42 -1
c-36 0 -43 3 -43 20 0 26 30 26 61 0z m157 -35 c26 -5 42 -13 42 -22 0 -11 5
-11 30 2 24 12 38 14 67 6 20 -6 47 -8 60 -5 15 4 31 0 43 -11 18 -16 20 -17
20 -2 0 12 8 17 26 17 l26 0 -31 -26 c-30 -25 -32 -26 -57 -9 -22 14 -30 15
-49 5 -26 -14 -61 -9 -58 8 5 20 -21 13 -51 -14 l-28 -27 -23 29 c-22 28 -23
28 -49 11 -29 -19 -46 -15 -46 10 0 11 -6 14 -20 9 -11 -3 -29 -9 -39 -12 -13
-4 -23 1 -30 15 -9 17 -9 21 3 21 8 0 17 -6 20 -12 5 -10 7 -10 12 0 3 6 10
10 15 6 5 -3 9 0 9 7 0 11 5 11 108 -6z m642 0 c0 -16 -9 -19 -35 -9 -13 5
-14 8 -3 15 20 13 38 11 38 -6z m145 -110 c0 -17 -7 -20 -45 -22 -41 -1 -42
-1 -10 6 23 4 31 9 22 14 -16 11 -5 29 16 25 10 -2 17 -12 17 -23z m-955 -27
c0 -4 -6 -8 -14 -8 -8 0 -18 -5 -22 -12 -5 -8 3 -10 27 -6 19 3 43 2 54 -3 13
-5 -3 -7 -45 -6 -54 2 -65 5 -68 20 -2 10 4 27 14 38 16 18 18 18 36 3 10 -10
18 -21 18 -26z m695 21 c11 -17 -2 -22 -41 -14 -28 5 -34 9 -23 16 19 12 56
11 64 -2z m-431 -40 c6 -5 -17 -9 -55 -9 -68 0 -109 8 -109 20 0 10 153 0 164
-11z m300 5 c25 -4 46 -9 46 -13 0 -3 -16 -16 -36 -29 -54 -35 -35 -37 31 -2
80 42 104 37 28 -6 -34 -19 -65 -39 -68 -44 -10 -17 -47 -11 -144 22 l-94 32
44 12 c24 6 55 16 69 22 30 13 61 14 124 6z m217 -25 c-37 -31 -16 -35 27 -5
48 33 82 35 82 4 0 -40 -12 -69 -25 -64 -7 2 -15 -5 -18 -16 -3 -11 -10 -17
-16 -13 -6 3 -11 1 -11 -5 0 -7 9 -9 23 -5 19 5 18 3 -8 -20 -74 -65 -172 -87
-375 -88 -222 0 -340 31 -410 109 -16 17 -19 25 -9 22 12 -5 15 -1 11 18 -5
26 -17 32 -25 12 -3 -7 -6 -2 -6 10 -1 23 1 24 62 18 34 -3 99 -5 145 -5 73 0
82 -1 82 -18 0 -15 2 -15 9 -4 8 13 15 13 53 0 l43 -14 -55 -5 c-42 -5 -49 -7
-30 -12 40 -11 223 -16 245 -7 11 4 32 10 48 13 15 4 27 11 27 17 0 6 -4 7
-10 4 -5 -3 -10 -4 -10 -1 0 11 138 74 165 75 6 0 -1 -9 -14 -20z"/>
<path d="M1180 3404 c0 -8 5 -12 10 -9 6 4 8 11 5 16 -9 14 -15 11 -15 -7z"/>
<path d="M845 3390 c-3 -5 -1 -10 4 -10 6 0 11 5 11 10 0 6 -2 10 -4 10 -3 0
-8 -4 -11 -10z"/>
<path d="M1070 3391 c0 -5 5 -13 10 -16 6 -3 10 -2 10 4 0 5 -4 13 -10 16 -5
3 -10 2 -10 -4z"/>
<path d="M1290 3370 c19 -13 30 -13 30 0 0 6 -10 10 -22 10 -19 0 -20 -2 -8
-10z"/>
<path d="M965 3350 c-3 -5 1 -10 10 -10 9 0 13 5 10 10 -3 6 -8 10 -10 10 -2
0 -7 -4 -10 -10z"/>
<path d="M750 3335 c0 -8 2 -15 4 -15 2 0 6 7 10 15 3 8 1 15 -4 15 -6 0 -10
-7 -10 -15z"/>
<path d="M1237 3343 c-4 -3 -7 -11 -7 -17 0 -6 5 -5 12 2 6 6 9 14 7 17 -3 3
-9 2 -12 -2z"/>
<path d="M845 3319 c-9 -14 -2 -20 14 -10 8 6 9 11 3 15 -6 3 -14 1 -17 -5z"/>
<path d="M1090 3304 c0 -8 5 -12 10 -9 6 3 10 10 10 16 0 5 -4 9 -10 9 -5 0
-10 -7 -10 -16z"/>
<path d="M1360 3299 c0 -5 5 -7 10 -4 6 3 10 8 10 11 0 2 -4 4 -10 4 -5 0 -10
-5 -10 -11z"/>
<path d="M945 3280 c-3 -5 -2 -10 4 -10 5 0 13 5 16 10 3 6 2 10 -4 10 -5 0
-13 -4 -16 -10z"/>
<path d="M1190 3280 c0 -5 5 -10 10 -10 6 0 10 5 10 10 0 6 -4 10 -10 10 -5 0
-10 -4 -10 -10z"/>
<path d="M720 2919 c0 -5 9 -9 20 -9 11 0 20 2 20 4 0 2 -9 6 -20 9 -11 3 -20
1 -20 -4z"/>
<path d="M1025 2731 c6 -5 24 -13 40 -17 20 -4 27 -3 20 3 -5 6 -23 14 -40 17
-20 5 -27 4 -20 -3z"/>
<path d="M1330 2730 c0 -5 5 -10 10 -10 6 0 10 5 10 10 0 6 -4 10 -10 10 -5 0
-10 -4 -10 -10z"/>
<path d="M564 3278 c-19 -36 -22 -96 -7 -122 7 -13 8 -2 5 36 -3 38 1 64 12
86 9 18 14 32 12 32 -3 0 -13 -14 -22 -32z"/>
<path d="M1555 3256 c11 -27 15 -54 11 -80 -5 -33 -4 -37 5 -22 15 25 5 104
-15 125 -16 15 -16 13 -1 -23z"/>
<path d="M511 3234 c0 -11 3 -14 6 -6 3 7 2 16 -1 19 -3 4 -6 -2 -5 -13z"/>
<path d="M1621 3204 c0 -11 3 -14 6 -6 3 7 2 16 -1 19 -3 4 -6 -2 -5 -13z"/>
<path d="M1888 3115 c-3 -3 -37 -6 -76 -6 l-70 -1 -6 -71 c-3 -40 -7 -106 -8
-147 l-3 -75 33 -3 32 -3 0 50 0 50 38 6 c20 4 44 7 52 8 10 2 15 13 15 32 0
30 -1 30 -47 27 -47 -4 -48 -3 -48 27 0 29 1 30 60 37 l60 7 0 33 c0 31 -16
45 -32 29z"/>
<path d="M2040 3090 c-17 -18 -33 -50 -39 -78 -11 -53 -8 -131 5 -141 5 -3 14
-15 20 -25 16 -31 56 -39 98 -22 39 16 46 32 19 40 -11 3 -7 4 7 3 16 -1 25 3
25 13 0 8 5 19 10 23 6 5 0 7 -12 4 -16 -4 -23 0 -23 10 0 8 5 11 10 8 6 -4
10 5 10 19 0 14 5 26 11 26 6 0 9 -9 6 -20 -3 -11 -1 -18 4 -14 14 8 11 91 -5
129 -27 63 -99 76 -146 25z m86 -42 c10 -33 14 -129 4 -123 -4 3 -11 -6 -14
-20 -4 -16 -13 -25 -25 -25 -26 0 -34 41 -21 109 14 77 41 105 56 59z"/>
<path d="M2320 3090 c-17 -18 -33 -50 -39 -78 -11 -53 -8 -131 5 -141 5 -3 14
-15 20 -25 16 -31 56 -39 98 -22 39 16 46 32 19 40 -11 3 -7 4 7 3 16 -1 25 3
25 13 0 8 5 19 10 23 6 5 0 7 -12 4 -16 -4 -23 0 -23 10 0 8 5 11 10 8 6 -4
10 5 10 19 0 14 5 26 11 26 6 0 9 -9 6 -20 -3 -11 -1 -18 4 -14 14 8 11 91 -5
129 -27 63 -99 76 -146 25z m86 -42 c10 -33 14 -129 4 -123 -4 3 -11 -6 -14
-20 -4 -16 -13 -25 -25 -25 -26 0 -34 41 -21 109 14 77 41 105 56 59z"/>
<path d="M2603 3109 c-38 -11 -39 -17 -48 -188 l-6 -114 58 6 c68 7 99 28 131
88 30 57 28 157 -5 190 -23 24 -84 32 -130 18z m92 -91 c10 -21 12 -34 5 -36
-5 -2 -10 -12 -10 -21 0 -10 -9 -30 -21 -45 -28 -36 -54 -34 -51 5 2 14 11
115 11 122 1 4 12 7 25 7 18 0 29 -9 41 -32z m-118 0 c-3 -8 -6 -5 -6 6 -1 11
2 17 5 13 3 -3 4 -12 1 -19z m163 -63 c0 -12 -19 -12 -23 0 -4 9 -1 12 9 8 7
-3 14 -7 14 -8z"/>
<path d="M3568 3113 c-53 -3 -68 -8 -72 -21 -3 -9 -8 -77 -12 -151 l-7 -134
33 6 c18 4 63 7 101 7 l69 0 0 35 0 35 -65 0 c-45 0 -65 4 -65 13 0 6 -3 23
-7 36 -4 17 -3 22 6 17 6 -4 9 -12 5 -17 -5 -8 94 -2 104 6 2 2 0 15 -4 30 -6
25 -10 27 -53 23 -44 -3 -47 -1 -43 18 4 22 40 34 105 34 24 0 27 4 27 35 0
32 -2 35 -27 33 -16 -1 -58 -3 -95 -5z"/>
<path d="M4169 3113 l-66 -4 -7 -91 c-3 -50 -6 -117 -6 -150 0 -52 2 -58 21
-58 11 0 18 4 14 9 -3 5 0 13 6 17 8 4 9 3 5 -4 -5 -9 15 -12 73 -12 l81 0 0
35 0 35 -65 0 c-58 0 -65 2 -65 19 0 11 -5 23 -10 26 -6 4 -8 11 -4 16 3 5 10
7 15 3 5 -3 7 -10 3 -15 -7 -12 86 -1 99 11 5 4 6 18 2 30 -6 19 -13 21 -56
18 -45 -3 -48 -1 -43 17 4 11 7 21 9 22 1 2 29 6 63 9 l62 7 0 33 c0 32 -2 34
-32 32 -18 -1 -63 -3 -99 -5z"/>
<path d="M2902 3094 c-22 -15 -22 -17 -5 -31 17 -14 17 -14 -4 -10 -20 5 -22
1 -22 -57 0 -65 -6 -105 -17 -115 -4 -3 -4 14 -1 38 7 52 -11 42 -20 -12 -4
-30 -1 -40 21 -62 22 -22 34 -26 65 -22 21 2 44 7 51 12 6 4 23 1 36 -6 22
-11 27 -10 47 9 l21 22 -21 15 c-20 14 -23 48 -8 97 11 32 -14 28 -35 -7 -22
-36 -34 -43 -46 -24 -3 6 7 25 24 42 40 42 48 72 28 102 -20 30 -78 34 -114 9z
m58 -38 c0 -16 -28 -42 -36 -33 -8 7 14 47 26 47 6 0 10 -6 10 -14z m-36 -176
c-14 -14 -38 5 -30 26 6 16 8 16 23 1 11 -11 14 -20 7 -27z"/>
<path d="M3362 3103 c-18 -3 -31 -21 -52 -66 -29 -66 -30 -66 -53 13 -12 44
-14 45 -56 48 l-44 3 6 -143 c3 -79 2 -132 -3 -118 l-8 25 -1 -27 c-1 -22 4
-28 20 -28 41 0 59 18 60 63 l1 42 12 -35 c17 -48 41 -50 67 -6 11 20 23 36
25 36 2 0 3 -21 1 -47 l-2 -48 38 -3 37 -3 0 135 c0 128 -4 168 -19 165 -3 -1
-16 -4 -29 -6z"/>
<path d="M3972 3103 c-18 -3 -31 -21 -52 -66 -29 -66 -30 -66 -53 13 -12 44
-14 45 -56 48 l-44 3 6 -143 c3 -79 2 -132 -3 -118 l-8 25 -1 -27 c-1 -22 4
-28 20 -28 41 0 59 18 60 63 l1 42 12 -35 c17 -48 41 -50 67 -6 11 20 23 36
25 36 2 0 3 -21 1 -47 l-2 -48 38 -3 37 -3 0 135 c0 128 -4 168 -19 165 -3 -1
-16 -4 -29 -6z"/>
<path d="M4422 3095 c-24 -18 -41 -67 -34 -103 3 -13 24 -36 48 -53 67 -46 51
-95 -18 -58 -18 9 -24 8 -35 -7 -19 -26 -13 -35 32 -51 90 -31 169 32 139 112
-4 8 -26 29 -51 46 -33 23 -43 36 -41 52 2 12 11 23 21 25 12 3 17 -3 17 -22
0 -22 4 -26 30 -26 28 0 30 3 30 34 0 19 -7 42 -16 50 -20 21 -93 21 -122 1z
m113 -215 c3 -5 1 -10 -4 -10 -6 0 -11 5 -11 10 0 6 2 10 4 10 3 0 8 -4 11
-10z"/>
<path d="M3056 2964 c-4 -9 -4 -19 -1 -22 2 -3 7 3 11 12 4 9 4 19 1 22 -2 3
-7 -3 -11 -12z"/>
<path d="M1540 2635 c-22 -43 -36 -55 -95 -88 -46 -24 -60 -35 -40 -31 53 11
119 57 143 102 13 23 22 48 20 54 -2 7 -14 -9 -28 -37z"/>
<path d="M580 2657 c0 -27 51 -86 75 -87 5 0 -1 7 -14 16 -12 9 -31 30 -42 48
-10 17 -19 27 -19 23z"/>
<path d="M1577 2593 c-4 -3 -7 -11 -7 -17 0 -6 5 -5 12 2 6 6 9 14 7 17 -3 3
-9 2 -12 -2z"/>
</g>
</svg>
